<svg width="25" height="19" viewBox="0 0 25 19" fill="none" xmlns="http://www.w3.org/2000/svg">
<path fill-rule="evenodd" clip-rule="evenodd" d="M6.13453 1.19485C9.01817 0.912422 11.92 0.937073 14.7993 1.26846L15.5442 1.35419C16.9658 1.51781 18.11 2.69901 18.348 4.23639L22.3661 1.89797C22.6384 1.7395 22.9651 1.74113 23.2361 1.90232C23.507 2.06351 23.6862 2.36278 23.7131 2.69925L23.7436 3.08032C24.0855 7.35191 24.0855 11.6481 23.7436 15.9197L23.7131 16.3007C23.6862 16.6372 23.507 16.9365 23.2361 17.0977C22.9651 17.2588 22.6384 17.2605 22.3661 17.102L18.348 14.7636C18.11 16.301 16.9658 17.4822 15.5442 17.6458L14.7993 17.7315C11.92 18.0629 9.01818 18.0876 6.13453 17.8051L4.19584 17.6153C2.73501 17.4722 1.55469 16.2497 1.34252 14.66C0.885825 11.2382 0.885825 7.7618 1.34252 4.33996C1.55469 2.75028 2.73501 1.52781 4.19584 1.38473L6.13453 1.19485ZM18.5747 12.6773C18.6731 12.6942 18.7706 12.7291 18.8634 12.7831L21.9949 14.6056C22.2171 11.2062 22.2171 7.79378 21.9949 4.39441L18.8634 6.21688C18.7706 6.27091 18.6731 6.30575 18.5747 6.32267C18.7465 8.4367 18.7465 10.5633 18.5747 12.6773Z" stroke="black" stroke-linejoin="round"/>
</svg>
