<svg width="21" height="19" viewBox="0 0 21 19" fill="none" xmlns="http://www.w3.org/2000/svg">
<path fill-rule="evenodd" clip-rule="evenodd" d="M20 9.5C20 8.88768 19.5884 8.3913 19.0806 8.3913H1.91935C1.41161 8.3913 1 8.88768 1 9.5C1 10.1123 1.41161 10.6087 1.91935 10.6087H19.0806C19.5884 10.6087 20 10.1123 20 9.5Z" stroke="black" stroke-linecap="round"/>
<path fill-rule="evenodd" clip-rule="evenodd" d="M20 2.1087C20 1.49638 19.5884 1 19.0806 1H1.91935C1.41161 1 1 1.49638 1 2.1087C1 2.72101 1.41161 3.21739 1.91935 3.21739H19.0806C19.5884 3.21739 20 2.72101 20 2.1087Z" stroke="black" stroke-linecap="round"/>
<path fill-rule="evenodd" clip-rule="evenodd" d="M20 16.8913C20 16.279 19.5884 15.7826 19.0806 15.7826H1.91935C1.41161 15.7826 1 16.279 1 16.8913C1 17.5036 1.41161 18 1.91935 18H19.0806C19.5884 18 20 17.5036 20 16.8913Z" stroke="black" stroke-linecap="round"/>
</svg>
