<svg width="19" height="22" viewBox="0 0 19 22" fill="none" xmlns="http://www.w3.org/2000/svg">
<path fill-rule="evenodd" clip-rule="evenodd" d="M10.6209 2.01266C10.6209 1.45338 10.1191 1 9.50001 1C8.88095 1 8.3791 1.45338 8.3791 2.01266V2.77215H7.7543C5.26021 2.77215 3.19596 4.52406 3.04027 6.77291L2.79255 10.3511C2.6981 11.7153 2.19113 13.03 1.32685 14.152C0.545937 15.1657 1.24114 16.5658 2.59848 16.7129L6.41753 17.127V18.2152C6.41753 19.7532 7.7976 21 9.50001 21C11.2024 21 12.5825 19.7532 12.5825 18.2152V17.127L16.4015 16.7129C17.7589 16.5658 18.4541 15.1657 17.6732 14.152C16.8089 13.03 16.3019 11.7153 16.2074 10.3511L15.9597 6.7729C15.804 4.52406 13.7398 2.77215 11.2457 2.77215H10.6209V2.01266ZM8.09888 18.2152C8.09888 18.9143 8.72618 19.481 9.50001 19.481C10.2738 19.481 10.9011 18.9143 10.9011 18.2152V17.4557H8.09888V18.2152Z" stroke="black"/>
</svg>
