<svg width="22" height="23" viewBox="0 0 22 23" fill="none" xmlns="http://www.w3.org/2000/svg">
<path d="M13.3638 1.88168C12.0708 0.706109 9.92924 0.706108 8.6363 1.88167L2.32114 7.62354C1.95845 7.9533 1.71473 8.37019 1.62069 8.82168C0.853731 12.5038 0.797118 16.2733 1.45323 19.972L1.68552 21.2815C1.75889 21.6951 2.16353 22 2.63904 22H7.0518C7.41522 22 7.70984 21.7406 7.70984 21.4207V13.3103H14.2902V21.4207C14.2902 21.7406 14.5848 22 14.9483 22H19.361C19.8365 22 20.2411 21.6951 20.3145 21.2815L20.5468 19.972C21.2029 16.2733 21.1463 12.5038 20.3793 8.82167C20.2853 8.37019 20.0416 7.9533 19.6789 7.62354L13.3638 1.88168Z" stroke="black"/>
</svg>
