<svg width="21" height="18" viewBox="0 0 21 18" fill="none" xmlns="http://www.w3.org/2000/svg">
<path d="M20.0101 9.54519L19.5388 9.37827C19.5709 9.28777 19.6231 9.2121 19.6842 9.15325L19.6885 9.14907L19.6885 9.14909C19.9179 8.93349 20.0341 8.67829 20.0341 8.42165C20.0341 8.40599 20.0252 8.30386 19.8096 8.13485C19.5986 7.96944 19.2491 7.79094 18.7368 7.6286C17.7175 7.30555 16.1633 7.08034 14.0942 7.08017C14.0935 7.08017 14.0927 7.08017 14.092 7.08017V6.58017C14.0427 6.58073 13.9939 6.57261 13.9488 6.55635L13.7792 7.0267C13.6765 6.98965 13.5776 6.93248 13.4923 6.85403C13.4067 6.77536 13.3354 6.67562 13.2911 6.55823C13.2465 6.44006 13.2325 6.31185 13.2524 6.18475L13.2557 6.16422L13.2577 6.15612C13.2718 6.07585 13.2868 5.9957 13.3027 5.91568C13.3821 5.51199 13.4927 4.94649 13.4927 4.02965C13.4927 2.43167 12.9355 1.57979 12.3305 1.11249C11.701 0.626345 10.9457 0.500154 10.4899 0.5C10.3392 0.50061 10.2389 0.547671 10.1845 0.593741C10.1332 0.637146 10.1145 0.68384 10.1145 0.732522C10.1145 0.903266 10.1387 1.09674 10.1771 1.39398C10.1772 1.39421 10.1772 1.39444 10.1772 1.39468L9.68137 1.45878C9.74628 1.94948 9.83316 2.6147 9.83316 3.66339C9.83316 4.97707 8.93333 5.86131 8.03043 6.74858L8.02978 6.74922C7.11997 7.64452 6.20539 8.54452 6.20539 9.89061V14.6536C6.20539 15.851 6.85553 16.2595 7.42356 16.4849L20.0101 9.54519ZM20.0101 9.54519L19.5388 9.37829C19.5065 9.46949 19.4974 9.56839 19.5142 9.66604L20.007 9.58122L19.5142 9.66604C19.531 9.76321 19.5716 9.84948 19.6259 9.9201C19.6799 9.99024 19.7458 10.0431 19.8143 10.0803L19.8142 10.0804L19.8229 10.0849C20.045 10.2 20.2167 10.3532 20.3309 10.5221C20.444 10.6894 20.4986 10.8683 20.5 11.0433M20.0101 9.54519L20.5 11.0433M7.60797 16.0201C8.29967 16.2941 10.2386 16.7174 13.1163 16.7174C15.0899 16.7174 16.4549 16.5503 17.3098 16.299C17.739 16.1729 18.0054 16.0352 18.1548 15.9142C18.2966 15.7994 18.2966 15.7332 18.2966 15.7203V15.7203C18.2966 15.6352 18.2779 15.5455 18.2395 15.4507L18.2388 15.4489C18.1704 15.278 18.1898 15.0904 18.281 14.9398C18.281 14.9398 18.281 14.9397 18.281 14.9397L18.7087 15.1987C18.7209 15.1786 18.7421 15.1633 18.768 15.156L7.60797 16.0201ZM7.60797 16.0201C7.35498 15.9197 7.14072 15.7996 6.98542 15.6134C6.83862 15.4374 6.70539 15.155 6.70539 14.6536V9.89061C6.70539 8.78743 7.44001 8.03109 8.38023 7.10585L7.60797 16.0201ZM20.5 11.0433C20.4993 11.467 20.2138 11.8838 19.6611 12.0955L19.6611 12.0955L19.6571 12.0971C19.5875 12.1245 19.5187 12.1662 19.4583 12.2245C19.4583 12.2245 19.4583 12.2245 19.4583 12.2245L19.8055 12.5843M20.5 11.0433L19.7962 12.6853C19.7884 12.675 19.7834 12.6635 19.7814 12.6516C19.7794 12.6396 19.7806 12.6274 19.7847 12.6158C19.7889 12.6043 19.7959 12.5935 19.8055 12.5843M19.8055 12.5843C19.815 12.5751 19.8268 12.5677 19.8401 12.5624L19.8055 12.5843ZM1.43201 9.1087H3.34136C3.49055 9.1087 3.61835 9.15812 3.69944 9.2246C3.77774 9.28879 3.79604 9.35206 3.79604 9.3913V17.2174C3.79604 17.2566 3.77774 17.3199 3.69944 17.3841L4.01642 17.7708L3.69944 17.3841C3.61835 17.4506 3.49056 17.5 3.34136 17.5H1.43201C1.40329 17.5 1.32659 17.4917 1.20486 17.3302C1.07898 17.1631 0.950825 16.8863 0.839375 16.4896C0.618087 15.7017 0.5 14.5787 0.5 13.3043C0.5 12.03 0.618087 10.907 0.839375 10.1191C0.950825 9.72235 1.07898 9.44561 1.20486 9.27854C1.32659 9.11696 1.40329 9.1087 1.43201 9.1087Z" stroke="black"/>
</svg>
