<svg width="23" height="20" viewBox="0 0 23 20" fill="none" xmlns="http://www.w3.org/2000/svg">
<path fill-rule="evenodd" clip-rule="evenodd" d="M6.79375 1.17955C10.0812 0.924465 13.3832 0.941202 16.6681 1.2296L18.6478 1.40341C20.1432 1.5347 21.3568 2.70308 21.5842 4.23037L21.7091 5.06926C22.133 7.91598 22.0934 10.8155 21.5919 13.6488C21.3445 15.0468 20.1616 16.0628 18.7813 16.0628H7.83695C7.58515 16.0628 7.33728 16.127 7.11549 16.2497L2.3473 18.8878C2.06391 19.0446 1.72134 19.0366 1.4452 18.8666C1.16907 18.6966 1 18.3898 1 18.0586V7.36752C1 4.13081 3.42312 1.44109 6.55815 1.19783L6.79375 1.17955ZM6.79138 7.38923C5.94967 7.38923 5.26733 8.09171 5.26733 8.95825C5.26733 9.8248 5.94967 10.5273 6.79138 10.5273C7.63309 10.5273 8.31543 9.8248 8.31543 8.95825C8.31543 8.09171 7.63309 7.38923 6.79138 7.38923ZM11.6683 7.38923C10.8266 7.38923 10.1443 8.09171 10.1443 8.95825C10.1443 9.8248 10.8266 10.5273 11.6683 10.5273C12.51 10.5273 13.1924 9.8248 13.1924 8.95825C13.1924 8.09171 12.51 7.38923 11.6683 7.38923ZM15.0212 8.95825C15.0212 8.09171 15.7036 7.38923 16.5453 7.38923C17.387 7.38923 18.0693 8.09171 18.0693 8.95825C18.0693 9.8248 17.387 10.5273 16.5453 10.5273C15.7036 10.5273 15.0212 9.8248 15.0212 8.95825Z" stroke="black" stroke-linejoin="round"/>
</svg>
